<svg width="15" height="11" viewBox="0 0 15 11" fill="none" xmlns="http://www.w3.org/2000/svg">
<g id="fleche">
<path id="Trac&#195;&#169; 34" d="M7.83713 10.1411C7.69147 10.1411 7.54774 10.1078 7.41693 10.0437C7.28613 9.97959 7.1717 9.88645 7.0824 9.77137L0.706681 1.54879C0.628295 1.45 0.570273 1.33666 0.53597 1.2153C0.501668 1.09395 0.491766 0.967002 0.506838 0.841799C0.521909 0.716596 0.561655 0.595623 0.623776 0.485878C0.685897 0.376133 0.76916 0.279794 0.868751 0.202432C0.968341 0.125071 1.08228 0.0682226 1.20398 0.0351756C1.32568 0.00212859 1.45273 -0.00646128 1.57777 0.00990281C1.70281 0.0262669 1.82336 0.0672602 1.93246 0.130512C2.04156 0.193763 2.13703 0.278017 2.21336 0.378401L7.79391 7.57126L12.7539 0.418501C12.8248 0.314073 12.9158 0.224743 13.0215 0.155674C13.1272 0.0866036 13.2455 0.0391624 13.3697 0.0160907C13.4938 -0.00698103 13.6213 -0.0052259 13.7447 0.0212547C13.8682 0.0477352 13.9852 0.0984163 14.0889 0.17037C14.1927 0.242324 14.2811 0.334123 14.3492 0.440466C14.4173 0.546808 14.4636 0.665585 14.4855 0.789934C14.5074 0.914283 14.5045 1.04174 14.4768 1.16494C14.4492 1.28814 14.3974 1.40464 14.3245 1.50772L8.62251 9.73023C8.53657 9.8542 8.42249 9.95606 8.28962 10.0275C8.15675 10.0989 8.00886 10.1378 7.85805 10.1411H7.83713Z" fill="black"/>
</g>
</svg>
